<svg xmlns="http://www.w3.org/2000/svg" viewBox="0 0 640 400" fill="none">
  <rect width="640" height="400" fill="#ecfdf5" rx="16"/>

  <!-- Table -->
  <ellipse cx="320" cy="240" rx="200" ry="90" fill="white" stroke="#d1fae5" stroke-width="3"/>

  <!-- Person 1 (top-left) -->
  <rect x="96" y="136" width="96" height="64" rx="6" fill="#1f2e73"/>
  <rect x="100" y="140" width="88" height="52" rx="4" fill="#2d3e9e"/>
  <rect x="106" y="146" width="76" height="7" rx="2" fill="rgba(255,255,255,0.5)"/>
  <rect x="106" y="158" width="56" height="5" rx="2" fill="rgba(255,255,255,0.3)"/>
  <rect x="106" y="168" width="64" height="5" rx="2" fill="#ff6b35" opacity="0.8"/>
  <rect x="106" y="178" width="44" height="5" rx="2" fill="rgba(255,255,255,0.25)"/>
  <rect x="84" y="200" width="120" height="8" rx="4" fill="#374151"/>
  <circle cx="144" cy="108" r="18" fill="#fbbf24"/>
  <path d="M116 250 Q116 220 144 220 Q172 220 172 250" fill="#1f2e73"/>
  <rect x="148" y="152" width="30" height="18" rx="4" fill="#10b981"/>
  <text x="163" y="165" text-anchor="middle" fill="white" font-size="9" font-weight="700" font-family="system-ui,sans-serif">AI</text>

  <!-- Person 2 (top-right) -->
  <rect x="452" y="136" width="96" height="64" rx="6" fill="#1f2e73"/>
  <rect x="456" y="140" width="88" height="52" rx="4" fill="#2d3e9e"/>
  <rect x="462" y="146" width="76" height="7" rx="2" fill="rgba(255,255,255,0.5)"/>
  <rect x="462" y="158" width="60" height="5" rx="2" fill="rgba(255,255,255,0.3)"/>
  <rect x="462" y="168" width="50" height="5" rx="2" fill="rgba(255,255,255,0.25)"/>
  <rect x="462" y="178" width="72" height="5" rx="2" fill="#ff6b35" opacity="0.8"/>
  <rect x="440" y="200" width="120" height="8" rx="4" fill="#374151"/>
  <circle cx="500" cy="108" r="18" fill="#f9a8d4"/>
  <path d="M472 250 Q472 220 500 220 Q528 220 528 250" fill="#ff6b35"/>
  <rect x="460" y="152" width="30" height="18" rx="4" fill="#10b981"/>
  <text x="475" y="165" text-anchor="middle" fill="white" font-size="9" font-weight="700" font-family="system-ui,sans-serif">AI</text>

  <!-- Person 3 (bottom) -->
  <rect x="274" y="292" width="96" height="64" rx="6" fill="#1f2e73"/>
  <rect x="278" y="296" width="88" height="52" rx="4" fill="#2d3e9e"/>
  <rect x="284" y="302" width="76" height="7" rx="2" fill="rgba(255,255,255,0.5)"/>
  <rect x="284" y="314" width="64" height="5" rx="2" fill="#ff6b35" opacity="0.8"/>
  <rect x="284" y="324" width="48" height="5" rx="2" fill="rgba(255,255,255,0.3)"/>
  <rect x="284" y="334" width="72" height="5" rx="2" fill="rgba(255,255,255,0.25)"/>
  <rect x="262" y="356" width="120" height="8" rx="4" fill="#374151"/>
  <circle cx="322" cy="270" r="18" fill="#a5b4fc"/>
  <path d="M294 360 Q294 330 322 330 Q350 330 350 360" fill="#7c3aed"/>
  <rect x="316" y="308" width="30" height="18" rx="4" fill="#10b981"/>
  <text x="331" y="321" text-anchor="middle" fill="white" font-size="9" font-weight="700" font-family="system-ui,sans-serif">AI</text>

  <!-- Chat bubbles on table -->
  <rect x="190" y="196" width="130" height="34" rx="10" fill="#eef2ff" stroke="#c9d3ff" stroke-width="1"/>
  <text x="255" y="209" text-anchor="middle" fill="#1f2e73" font-size="10.5" font-family="system-ui,sans-serif">Dùng công thức 3W</text>
  <text x="255" y="223" text-anchor="middle" fill="#1f2e73" font-size="10.5" font-family="system-ui,sans-serif">cho AI giải thích</text>

  <rect x="330" y="220" width="130" height="34" rx="10" fill="#fff4ed" stroke="#ffd1bc" stroke-width="1"/>
  <text x="395" y="233" text-anchor="middle" fill="#e85a1f" font-size="10.5" font-family="system-ui,sans-serif">Hỏi lại nếu code</text>
  <text x="395" y="247" text-anchor="middle" fill="#e85a1f" font-size="10.5" font-family="system-ui,sans-serif">chưa hiểu rõ</text>
</svg>
